<svg width="50" height="60" xmlns="http://www.w3.org/2000/svg"><title>Layer 1</title><path fill="#fff" d="M8.03 21.212h32.023c1.473 0 2.668-1.123 2.668-2.506S41.527 16.2 40.054 16.2H8.03c-1.472 0-2.667 1.123-2.667 2.506s1.195 2.506 2.668 2.506zm32.023 5.012H8.03c-1.472 0-2.667 1.122-2.667 2.506s1.195 2.506 2.668 2.506h32.023c1.473 0 2.668-1.123 2.668-2.506s-1.194-2.506-2.667-2.506zm0 10.023H8.03c-1.472 0-2.667 1.123-2.667 2.506S6.558 41.26 8.03 41.26h32.023c1.473 0 2.668-1.123 2.668-2.507s-1.194-2.506-2.667-2.506z"/></svg>