<svg xmlns="http://www.w3.org/2000/svg" width="100" height="100"><path d="M93.956 48.126L80.904 61.18c-.67.668-1.58 1.043-2.525 1.043-.947 0-1.848-.375-2.526-1.044L62.81 48.125c-1.39-1.392-1.39-3.65 0-5.05 1.393-1.392 3.65-1.392 5.05 0l6.95 6.96V50c0-17.28-14.05-31.332-31.33-31.332-17.282 0-31.342 14.05-31.342 31.332 0 17.28 14.06 31.332 31.34 31.332 8.37 0 16.238-3.256 22.162-9.17 1.392-1.393 3.65-1.393 5.04 0 1.393 1.39 1.393 3.648 0 5.04-7.26 7.27-16.923 11.268-27.2 11.268C22.262 88.47 5 71.215 5 50s17.263-38.47 38.478-38.47S81.948 28.786 81.948 50v.036l6.958-6.96c1.392-1.39 3.65-1.39 5.05 0 1.392 1.402 1.392 3.66 0 5.05z" fill="#fff"/></svg>