<svg xmlns="http://www.w3.org/2000/svg" width="100" height="100"><path d="M34.09 21.65c.783 4.452 4.483 7.728 9 7.966.17.01.344.014.515.014 4.275 0 8.087-2.875 9.28-7.04l.002-.008c.084-.302.154-.607.2-.878.013-.048.022-.097.03-.146.05-.297.088-.6.11-.952 0-.007 0-.015.003-.022.007-.06.01-.12.01-.18v-.02c.015-.333.01-.658-.01-.984 0-.008-.008-.093-.01-.1-.02-.314-.06-.622-.108-.924-.007-.06-.02-.117-.032-.174-.818-4.403-4.495-7.633-8.977-7.87-4.503-.232-8.557 2.7-9.784 6.977-.097.33-.175.666-.247 1.074-.052.315-.093.634-.116 1.018l-.005.067v.018c-.02.36-.013.716.012 1.132.023.347.067.688.126 1.03m2.785-2.045c.014-.254.046-.502.092-.782.042-.24.097-.473.164-.705.857-2.984 3.705-5.03 6.82-4.865 3.145.166 5.722 2.45 6.266 5.553l.01.057c.036.212.062.43.084.697.012.225.017.45.007.734l-.004.053c-.012.238-.04.473-.078.704l-.02.094c-.04.23-.09.45-.134.61l-.023.076c-.855 2.985-3.677 5.02-6.814 4.864-3.146-.166-5.726-2.45-6.27-5.556-.043-.235-.073-.472-.092-.752-.014-.248-.02-.498-.006-.75v-.03z"/><path d="M55.794 67.516H38.27L28.53 34.46c-.23-.773-1.04-1.217-1.817-.99-.775.23-1.218 1.043-.99 1.818L35.77 69.392c.03.1.085.188.134.277l-3.948 20.26c-.154.793.363 1.56 1.156 1.715.095.02.188.027.28.027.687 0 1.3-.484 1.436-1.183l3.907-20.05h7.216l3.908 20.05c.136.697.75 1.182 1.434 1.182.093 0 .188-.01.282-.027.793-.154 1.31-.922 1.155-1.716L48.93 70.44h6.862c.808 0 1.463-.655 1.463-1.463 0-.81-.655-1.464-1.463-1.464z"/><path d="M71.858 63.546c-2.11-2.038-4.757-1.963-4.82-1.966h-7.265c-2.58-2.878-8.017-9.817-8.017-14.037V34.875c0-.808-.655-1.463-1.463-1.463H37.627c-.207 0-.412.044-.6.13-.45.202-4.353 2.217-2.667 10.46.01.042.02.084.032.126l5.78 19.334c.185.62.755 1.044 1.4 1.044h17.804c.402.017 1.556.148 2.51 1.042 1.07 1.003 1.61 2.683 1.61 4.993v19.67c0 .807.656 1.462 1.464 1.462.808 0 1.463-.655 1.463-1.463V70.54c0-2.5-.546-4.517-1.608-6.035h2.273c.018-.01 1.536-.015 2.736 1.145 1.052 1.017 1.585 2.662 1.585 4.892V90.21c0 .808.654 1.463 1.462 1.463.808 0 1.463-.655 1.463-1.463V70.54c0-3.052-.833-5.405-2.477-6.994M37.214 43.353c-.974-4.835.375-6.567.855-7.015h10.76v11.206c0 4.64 4.337 10.673 7.092 14.037H42.664l-5.45-18.227z"/><g><path d="M72.607 53.126c-7.386 0-13.395-6.01-13.395-13.395 0-7.386 6.01-13.395 13.395-13.395 7.386 0 13.395 6.01 13.395 13.395 0 7.387-6.01 13.396-13.395 13.396m0-25.302c-6.565 0-11.907 5.34-11.907 11.906 0 6.566 5.342 11.907 11.907 11.907 6.566 0 11.907-5.34 11.907-11.907 0-6.565-5.34-11.906-11.907-11.906z"/></g><g><path d="M79.305 40.475h-6.698c-.41 0-.744-.334-.744-.745v-9.674c0-.41.333-.744.744-.744.41 0 .744.333.744.744v8.93h5.955c.41 0 .744.333.744.745 0 .41-.334.745-.745.745z"/></g></svg>