<svg width="50" height="60" xmlns="http://www.w3.org/2000/svg" xmlns:svg="http://www.w3.org/2000/svg">
 <!-- Created with SVG-edit - http://svg-edit.googlecode.com/ -->
 <g>
  <title>Layer 1</title>
  <g transform="matrix(1.280873842486088,0,0,1.2028235223960868,1.9970259785892515,3.860518926670091) " id="svg_7">
   <path fill="#ffffff" id="svg_8" d="m4.71091,14.42569l25,0c1.15,0 2.08333,-0.93333 2.08333,-2.08333s-0.93333,-2.08333 -2.08333,-2.08333l-25,0c-1.15,0 -2.08333,0.93333 -2.08333,2.08333s0.93333,2.08333 2.08333,2.08333zm25,4.16667l-25,0c-1.15,0 -2.08333,0.93333 -2.08333,2.08333s0.93333,2.08333 2.08333,2.08333l25,0c1.15,0 2.08333,-0.93333 2.08333,-2.08333s-0.93333,-2.08333 -2.08333,-2.08333zm0,8.33333l-25,0c-1.15,0 -2.08333,0.93333 -2.08333,2.08334s0.93333,2.08333 2.08333,2.08333l25,0c1.15,0 2.08333,-0.93333 2.08333,-2.08333s-0.93333,-2.08334 -2.08333,-2.08334z"/>
  </g>
 </g>
</svg>