<?xml version="1.0"?>
<svg version="1.1" xmlns="http://www.w3.org/2000/svg" xmlns:xlink="http://www.w3.org/1999/xlink" width="100" height="100">
    <desc iVinci="yes" version="4.5" gridStep="20" showGrid="no" snapToGrid="no" codePlatform="0"/>
    <g id="Layer1" opacity="1">
        <g id="Shape1">
            <desc shapeID="1" type="0" basicInfo-basicType="0" basicInfo-roundedRectRadius="12" basicInfo-polygonSides="6" basicInfo-starPoints="5" bounding="rect(-9.65426,-9.65542,19.3085,19.3108)" text="" font-familyName="" font-pixelSize="20" font-bold="0" font-underline="0" font-alignment="1" strokeStyle="0" markerStart="0" markerEnd="0" shadowEnabled="0" shadowOffsetX="0" shadowOffsetY="2" shadowBlur="4" shadowOpacity="160" blurEnabled="0" blurRadius="4" transform="matrix(1,0,0,1,43.5944,19.9746)" pers-center="0,0" pers-size="0,0" pers-start="0,0" pers-end="0,0" locked="0" mesh="" flag=""/>
            <path id="shapePath1" d="M34.09,21.649 C34.873,26.102 38.573,29.378 43.089,29.616 C43.261,29.625 43.434,29.63 43.605,29.63 C47.88,29.63 51.692,26.755 52.885,22.589 C52.885,22.587 52.887,22.584 52.887,22.582 C52.971,22.28 53.041,21.975 53.086,21.704 C53.1,21.656 53.109,21.607 53.117,21.558 C53.166,21.261 53.205,20.958 53.226,20.606 C53.228,20.599 53.228,20.591 53.23,20.584 C53.237,20.524 53.241,20.464 53.241,20.404 C53.241,20.397 53.241,20.39 53.241,20.383 C53.255,20.051 53.249,19.726 53.23,19.4 C53.23,19.392 53.222,19.307 53.221,19.299 C53.199,18.986 53.161,18.678 53.112,18.376 C53.105,18.317 53.093,18.259 53.08,18.202 C52.262,13.799 48.585,10.569 44.103,10.332 C39.6,10.1 35.546,13.032 34.319,17.309 C34.223,17.64 34.145,17.976 34.073,18.384 C34.021,18.699 33.98,19.018 33.957,19.402 L33.956,19.402 C33.955,19.423 33.953,19.446 33.952,19.469 C33.952,19.475 33.951,19.481 33.951,19.488 C33.932,19.848 33.939,20.204 33.964,20.62 C33.987,20.967 34.031,21.308 34.09,21.649 M36.875,19.605 C36.889,19.351 36.921,19.103 36.967,18.823 C37.009,18.584 37.064,18.35 37.131,18.118 C37.987,15.134 40.835,13.088 43.95,13.253 C47.095,13.419 49.672,15.703 50.216,18.806 C50.219,18.825 50.223,18.844 50.227,18.863 C50.262,19.075 50.288,19.294 50.31,19.56 C50.322,19.785 50.327,20.011 50.317,20.294 C50.315,20.312 50.314,20.33 50.313,20.347 C50.301,20.585 50.272,20.82 50.235,21.051 C50.227,21.088 50.219,21.124 50.216,21.144 C50.175,21.373 50.124,21.595 50.081,21.754 C50.072,21.779 50.064,21.805 50.057,21.83 C49.202,24.815 46.38,26.849 43.243,26.694 C40.097,26.528 37.517,24.244 36.972,21.138 C36.93,20.903 36.9,20.666 36.881,20.386 C36.866,20.138 36.861,19.888 36.874,19.636 C36.874,19.625 36.875,19.614 36.875,19.605 Z" style="stroke:none;fill-rule:nonzero;fill:#000000;fill-opacity:1;"/>
        </g>
        <g id="Shape2">
            <desc shapeID="2" type="0" basicInfo-basicType="0" basicInfo-roundedRectRadius="12" basicInfo-polygonSides="6" basicInfo-starPoints="5" bounding="rect(-15.7969,-29.1304,31.5939,58.2608)" text="" font-familyName="" font-pixelSize="20" font-bold="0" font-underline="0" font-alignment="1" strokeStyle="0" markerStart="0" markerEnd="0" shadowEnabled="0" shadowOffsetX="0" shadowOffsetY="2" shadowBlur="4" shadowOpacity="160" blurEnabled="0" blurRadius="4" transform="matrix(1,0,0,1,41.4601,62.5416)" pers-center="0,0" pers-size="0,0" pers-start="0,0" pers-end="0,0" locked="0" mesh="" flag=""/>
            <path id="shapePath2" d="M55.794,67.516 L38.269,67.516 L28.53,34.461 C28.301,33.687 27.491,33.243 26.713,33.471 C25.938,33.7 25.495,34.513 25.723,35.288 L35.771,69.392 C35.801,69.493 35.855,69.58 35.904,69.669 L31.956,89.929 C31.802,90.723 32.319,91.491 33.112,91.645 C33.207,91.664 33.3,91.672 33.393,91.672 C34.079,91.672 34.691,91.188 34.828,90.489 L38.735,70.441 L45.951,70.441 L49.858,90.489 C49.994,91.187 50.607,91.672 51.292,91.672 C51.385,91.672 51.48,91.663 51.574,91.645 C52.367,91.491 52.885,90.723 52.729,89.929 L48.932,70.442 L55.794,70.442 C56.602,70.442 57.257,69.787 57.257,68.979 C57.257,68.171 56.602,67.516 55.794,67.516 Z" style="stroke:none;fill-rule:nonzero;fill:#000000;fill-opacity:1;"/>
        </g>
        <g id="Shape3">
            <desc shapeID="3" type="0" basicInfo-basicType="0" basicInfo-roundedRectRadius="12" basicInfo-polygonSides="6" basicInfo-starPoints="5" bounding="rect(-20.1976,-29.1305,40.3952,58.261)" text="" font-familyName="" font-pixelSize="20" font-bold="0" font-underline="0" font-alignment="1" strokeStyle="0" markerStart="0" markerEnd="0" shadowEnabled="0" shadowOffsetX="0" shadowOffsetY="2" shadowBlur="4" shadowOpacity="160" blurEnabled="0" blurRadius="4" transform="matrix(1,0,0,1,54.1374,62.5425)" pers-center="0,0" pers-size="0,0" pers-start="0,0" pers-end="0,0" locked="0" mesh="" flag=""/>
            <path id="shapePath3" d="M71.858,63.546 C69.749,61.508 67.101,61.583 67.039,61.58 L59.773,61.58 C57.193,58.702 51.756,51.763 51.756,47.543 L51.756,34.875 C51.756,34.067 51.101,33.412 50.293,33.412 L37.627,33.412 C37.42,33.412 37.215,33.456 37.026,33.541 C36.576,33.744 32.674,35.759 34.36,44.002 C34.369,44.044 34.379,44.086 34.392,44.128 L40.172,63.462 C40.357,64.081 40.927,64.506 41.573,64.506 L59.126,64.506 L59.127,64.506 L59.376,64.506 C59.778,64.523 60.932,64.654 61.886,65.548 C62.955,66.551 63.497,68.231 63.497,70.541 L63.497,90.209 C63.497,91.017 64.152,91.672 64.96,91.672 C65.768,91.672 66.423,91.017 66.423,90.209 L66.423,70.541 C66.423,68.041 65.877,66.023 64.815,64.505 L67.088,64.505 C67.106,64.496 68.624,64.49 69.824,65.65 C70.876,66.667 71.409,68.312 71.409,70.542 L71.409,90.21 C71.409,91.018 72.064,91.673 72.872,91.673 C73.68,91.673 74.335,91.018 74.335,90.21 L74.335,70.541 C74.336,67.488 73.502,65.135 71.858,63.546 M37.214,43.353 C36.24,38.518 37.589,36.786 38.069,36.338 L48.83,36.338 L48.83,47.544 C48.83,52.183 53.167,58.217 55.922,61.581 L53.626,61.581 L42.664,61.581 L37.214,43.353 Z" style="stroke:none;fill-rule:nonzero;fill:#000000;fill-opacity:1;"/>
        </g>
        <g id="Shape4">
            <desc shapeID="4" type="0" basicInfo-basicType="0" basicInfo-roundedRectRadius="12" basicInfo-polygonSides="6" basicInfo-starPoints="5" bounding="rect(-45,-45,90,90)" text="" font-familyName="" font-pixelSize="20" font-bold="0" font-underline="0" font-alignment="1" strokeStyle="0" markerStart="0" markerEnd="0" shadowEnabled="0" shadowOffsetX="0" shadowOffsetY="2" shadowBlur="4" shadowOpacity="160" blurEnabled="0" blurRadius="4" transform="matrix(0.297672,0,0,0.297672,72.6072,39.7305)" pers-center="0,0" pers-size="0,0" pers-start="0,0" pers-end="0,0" locked="0" mesh="" flag=""/>
            <path id="shapePath4" d="M72.6072,53.1257 C65.221,53.1257 59.2119,47.1166 59.2119,39.7305 C59.2119,32.3443 65.221,26.3352 72.6072,26.3352 C79.9933,26.3352 86.0024,32.3443 86.0024,39.7305 C86.0024,47.1166 79.9933,53.1257 72.6072,53.1257 M72.6072,27.8236 C66.0417,27.8236 60.7003,33.165 60.7003,39.7305 C60.7003,46.2959 66.0417,51.6374 72.6072,51.6374 C79.1726,51.6374 84.5141,46.2959 84.5141,39.7305 C84.5141,33.165 79.1726,27.8236 72.6072,27.8236 Z" style="stroke:none;fill-rule:nonzero;fill:#000000;fill-opacity:1;"/>
        </g>
        <g id="Shape5">
            <desc shapeID="5" type="0" basicInfo-basicType="0" basicInfo-roundedRectRadius="12" basicInfo-polygonSides="6" basicInfo-starPoints="5" bounding="rect(-13.75,-18.75,27.5,37.5)" text="" font-familyName="" font-pixelSize="20" font-bold="0" font-underline="0" font-alignment="1" strokeStyle="0" markerStart="0" markerEnd="0" shadowEnabled="0" shadowOffsetX="0" shadowOffsetY="2" shadowBlur="4" shadowOpacity="160" blurEnabled="0" blurRadius="4" transform="matrix(0.297672,0,0,0.297672,75.956,34.8933)" pers-center="0,0" pers-size="0,0" pers-start="0,0" pers-end="0,0" locked="0" mesh="" flag=""/>
            <path id="shapePath5" d="M79.3048,40.4747 L72.6072,40.4747 C72.1961,40.4747 71.863,40.1413 71.863,39.7305 L71.863,30.0561 C71.863,29.645 72.1961,29.312 72.6072,29.312 C73.0183,29.312 73.3514,29.645 73.3514,30.0561 L73.3514,38.9863 L79.3048,38.9863 C79.7159,38.9863 80.049,39.3194 80.049,39.7305 C80.049,40.1413 79.7159,40.4747 79.3048,40.4747 Z" style="stroke:none;fill-rule:nonzero;fill:#000000;fill-opacity:1;"/>
        </g>
    </g>
</svg>
